<?xml version="1.0" encoding="UTF-8"?><svg id="Layer_2" xmlns="http://www.w3.org/2000/svg" viewBox="0 0 111.23 115"><g id="Process_Items"><path d="M75.49,113.33h-37.39c-13.02,0-23.58-10.56-23.58-23.58v-45.73h83.71v46.57c0,12.56-10.18,22.74-22.74,22.74Z" style="fill:#a5c4e9;"/><path d="M75.49,115h-37.39c-13.92,0-25.24-11.32-25.24-25.24v-47.39h87.04v48.23c0,13.46-10.95,24.41-24.41,24.41ZM16.18,45.68v44.07c0,12.09,9.83,21.92,21.92,21.92h37.39c11.63,0,21.08-9.46,21.08-21.08v-44.91H16.18Z" style="fill:#0f243e;"/><rect y="42.03" width="111.23" height="3.99" style="fill:#0f243e;"/><rect x="14.69" y="44.19" width="83.38" height="25.45" style="fill:#fff;"/><path d="M99.73,71.3H13.02v-28.77h86.7v28.77ZM16.35,67.97h80.06v-22.13H16.35v22.13Z" style="fill:#0f243e;"/><rect x="54.71" y="44.02" width="3.32" height="69.31" style="fill:#0f243e;"/><rect x="31.43" y="24.1" width="12.39" height="70.99" style="fill:#fff;"/><path d="M45.48,96.75h-15.71V22.43h15.71v74.31ZM33.09,93.42h9.07V25.76h-9.07v67.67Z" style="fill:#0f243e;"/><polygon points="78.8 24.1 75.47 24.1 75.47 7.38 39.28 7.38 39.28 24.1 35.96 24.1 35.96 4.06 78.8 4.06 78.8 24.1" style="fill:#0f243e;"/><rect x="47.5" y="1.66" width="20.09" height="8.04" style="fill:#fff;"/><path d="M69.25,11.36h-23.41V0h23.41v11.36ZM49.16,8.04h16.77V3.32h-16.77v4.71Z" style="fill:#0f243e;"/><rect x="70.94" y="24.1" width="12.39" height="70.99" style="fill:#fff;"/><path d="M84.99,96.75h-15.71V22.43h15.71v74.31ZM72.6,93.42h9.07V25.76h-9.07v67.67Z" style="fill:#0f243e;"/></g></svg>