<?xml version="1.0" encoding="UTF-8"?><svg id="Layer_2" xmlns="http://www.w3.org/2000/svg" viewBox="0 0 117.8 117.8"><g id="Process_Items"><path d="M58.9,116.3C27.25,116.3,1.5,90.55,1.5,58.9S27.25,1.5,58.9,1.5s57.4,25.75,57.4,57.4-25.75,57.4-57.4,57.4Z" style="fill:#fff;"/><path d="M58.9,3c30.82,0,55.9,25.08,55.9,55.9s-25.08,55.9-55.9,55.9S3,89.72,3,58.9,28.08,3,58.9,3M58.9,0C26.37,0,0,26.37,0,58.9s26.37,58.9,58.9,58.9,58.9-26.37,58.9-58.9S91.43,0,58.9,0h0Z" style="fill:#0f243e;"/><text transform="translate(20.84 74.75)" style="fill:#fff; font-family:MyriadPro-Regular, &apos;Myriad Pro&apos;; font-size:51px;"><tspan x="0" y="0" style="letter-spacing:-.02em;">C</tspan><tspan x="28.51" y="0" style="letter-spacing:0em;">O</tspan></text><text transform="translate(82.68 79.66)" style="fill:#fff; font-family:MyriadPro-Regular, &apos;Myriad Pro&apos;; font-size:28px;"><tspan x="0" y="0">2</tspan></text><circle cx="59.16" cy="58.62" r="48" style="fill:#6e9e57;"/><text transform="translate(28.28 78.39)" style="fill:#fff; font-family:Inter-Black, Inter; font-variation-settings:&apos;opsz&apos; 14, &apos;wght&apos; 900; font-weight:800;"><tspan x="0" y="0" style="font-size:56px;">H</tspan><tspan x="42" y="0" style="font-size:40px;">₂</tspan></text></g></svg>