<?xml version="1.0" encoding="UTF-8"?><svg id="Layer_2" xmlns="http://www.w3.org/2000/svg" viewBox="0 0 106.43 118"><g id="Process_Items"><g id="Liquefaction"><path d="M104.93,60.05v-5.23H1.5v5.23h11.47v56.45h9.79v-42.34c3.79,3.8,8.32,6.89,13.37,9.06v33.28h9.79v-30.4c2.37.4,4.81.61,7.3.61,2.06,0,4.09-.15,6.07-.43v30.22h9.79v-32.77c5.01-1.96,9.53-4.82,13.37-8.38v41.15h9.79v-54.87c.23-.52.44-1.05.65-1.58h12.05Z" style="fill:#fff; stroke:#0f243e; stroke-miterlimit:10; stroke-width:3px;"/><path d="M95.56,44.36c0-23.23-19.11-42.34-42.34-42.34S10.88,21.14,10.88,44.36h84.68Z" style="fill:#fff; stroke:#0f243e; stroke-miterlimit:10; stroke-width:3px;"/><rect x="30.48" y="1.5" width="45.48" height="6.27" style="fill:#fff; stroke:#0f243e; stroke-miterlimit:10; stroke-width:3px;"/></g></g></svg>