<?xml version="1.0" encoding="UTF-8"?><svg id="Layer_2" xmlns="http://www.w3.org/2000/svg" viewBox="0 0 21.47 22.52"><g id="Process_Items"><path d="M21.47,11.27c0,.44-.02.8-.07,1.1s-.12.54-.21.71-.2.31-.33.39-.26.12-.4.12h-7.29v7.95c0,.16-.04.29-.12.41s-.21.22-.4.3-.44.15-.75.2-.7.07-1.17.07-.86-.02-1.17-.07-.56-.11-.75-.2-.32-.19-.41-.3-.13-.25-.13-.41v-7.95H1.01c-.14,0-.27-.04-.39-.12s-.22-.21-.32-.39-.17-.42-.22-.71-.08-.66-.08-1.1.02-.79.07-1.09.11-.55.2-.73.18-.31.29-.39.23-.12.38-.12h7.34V1.03c0-.16.04-.3.13-.43s.22-.24.41-.33.44-.15.75-.2.7-.07,1.17-.07.86.02,1.17.07.56.11.75.2.32.2.4.33.12.28.12.43v7.92h7.36c.12,0,.25.04.36.12s.22.21.3.39.15.42.2.73.07.67.07,1.09Z"/></g></svg>