<?xml version="1.0" encoding="UTF-8"?><svg id="Layer_2" xmlns="http://www.w3.org/2000/svg" viewBox="0 0 117.8 117.8"><g id="Process_Items"><path d="M58.9,116.3C27.25,116.3,1.5,90.55,1.5,58.9S27.25,1.5,58.9,1.5s57.4,25.75,57.4,57.4-25.75,57.4-57.4,57.4Z" style="fill:#fff;"/><path d="M58.9,3c30.82,0,55.9,25.08,55.9,55.9s-25.08,55.9-55.9,55.9S3,89.72,3,58.9,28.08,3,58.9,3M58.9,0C26.37,0,0,26.37,0,58.9s26.37,58.9,58.9,58.9,58.9-26.37,58.9-58.9S91.43,0,58.9,0h0Z" style="fill:#0f243e;"/><circle cx="58.6" cy="58.29" r="48" style="fill:#263c76;"/><path d="M69.43,71.79c-8.09,0-14.67-6.58-14.67-14.67,0-7.36,12.36-26.98,14.82-30.82,2.42,3.84,14.52,23.46,14.52,30.82,0,8.09-6.58,14.67-14.67,14.67Z" style="fill:#fff;"/><path d="M69.58,27.24c1.31,2.11,3.99,6.49,6.64,11.36,4.83,8.86,7.38,15.27,7.38,18.53,0,7.81-6.36,14.17-14.17,14.17s-14.17-6.36-14.17-14.17c0-6.87,11.13-24.87,14.32-29.89M69.59,25.38s-15.33,23.37-15.33,31.75,6.79,15.17,15.17,15.17,15.17-6.79,15.17-15.17-15.01-31.75-15.01-31.75h0Z" style="fill:#263c76;"/><path d="M48.62,89.79c-10.21,0-18.52-8.31-18.52-18.52,0-8.92,14.32-32.18,18.72-39.11,4.32,6.95,18.33,30.18,18.33,39.11,0,10.21-8.31,18.52-18.52,18.52Z" style="fill:#fff;"/><path d="M48.8,34.98c6.29,10.28,16.84,29.04,16.84,36.29,0,9.39-7.64,17.02-17.02,17.02s-17.02-7.64-17.02-17.02c0-7.25,10.78-26.02,17.2-36.29M48.83,29.37s-20.23,30.85-20.23,41.9,8.96,20.02,20.02,20.02,20.02-8.96,20.02-20.02-19.82-41.9-19.82-41.9h0Z" style="fill:#263c76;"/><path d="M59.17,73.46c3.07,5.7-5.18,12.01-10.01,7.84,0,0,0-.3,0-.3,4.46-.21,8.6-3.21,9.72-7.61,0,0,.29.07.29.07h0Z" style="fill:#263c76;"/><path d="M78.17,55.41c4.02,4.91-2.77,12.37-8.18,9.43,0,0-.08-.29-.08-.29,4.11-1.24,7.67-4.71,7.95-9.15,0,0,.3.01.3.01h0Z" style="fill:#263c76;"/></g></svg>