<svg width="40" height="40" viewBox="0 0 40 40" fill="none" xmlns="http://www.w3.org/2000/svg">
<rect x="0.5" y="0.5" width="39" height="39" rx="19.5" fill="white" />
<path d="M27.5 17.5H23.75V13.75C23.75 12.375 22.625 11.25 21.25 11.25H12.5C11.125 11.25 10 12.375 10 13.75V26.25C10 27.625 11.125 28.75 12.5 28.75H27.5C28.875 28.75 30 27.625 30 26.25V20C30 18.625 28.875 17.5 27.5 17.5ZM11.25 26.25V13.75C11.25 13.0625 11.8125 12.5 12.5 12.5H21.25C21.9375 12.5 22.5 13.0625 22.5 13.75V27.5H12.5C11.8125 27.5 11.25 26.9375 11.25 26.25ZM28.75 26.25C28.75 26.9375 28.1875 27.5 27.5 27.5H23.75V18.75H27.5C28.1875 18.75 28.75 19.3125 28.75 20V26.25ZM15.9375 16.25C15.9375 16.75 15.5 17.1875 15 17.1875C14.5 17.1875 14.0625 16.75 14.0625 16.25C14.0625 15.75 14.5 15.3125 15 15.3125C15.5 15.3125 15.9375 15.75 15.9375 16.25ZM19.6875 16.25C19.6875 16.75 19.25 17.1875 18.75 17.1875C18.25 17.1875 17.8125 16.75 17.8125 16.25C17.8125 15.75 18.25 15.3125 18.75 15.3125C19.25 15.3125 19.6875 15.75 19.6875 16.25ZM15.9375 20C15.9375 20.5 15.5 20.9375 15 20.9375C14.5 20.9375 14.0625 20.5 14.0625 20C14.0625 19.5 14.5 19.0625 15 19.0625C15.5 19.0625 15.9375 19.5 15.9375 20ZM19.6875 20C19.6875 20.5 19.25 20.9375 18.75 20.9375C18.25 20.9375 17.8125 20.5 17.8125 20C17.8125 19.5 18.25 19.0625 18.75 19.0625C19.25 19.0625 19.6875 19.5 19.6875 20ZM27.1875 21.25C27.1875 21.75 26.75 22.1875 26.25 22.1875C25.75 22.1875 25.3125 21.75 25.3125 21.25C25.3125 20.75 25.75 20.3125 26.25 20.3125C26.75 20.3125 27.1875 20.75 27.1875 21.25ZM27.1875 25C27.1875 25.5 26.75 25.9375 26.25 25.9375C25.75 25.9375 25.3125 25.5 25.3125 25C25.3125 24.5 25.75 24.0625 26.25 24.0625C26.75 24.0625 27.1875 24.5 27.1875 25ZM15.9375 23.75C15.9375 24.25 15.5 24.6875 15 24.6875C14.5 24.6875 14.0625 24.25 14.0625 23.75C14.0625 23.25 14.5 22.8125 15 22.8125C15.5 22.8125 15.9375 23.25 15.9375 23.75ZM19.6875 23.75C19.6875 24.25 19.25 24.6875 18.75 24.6875C18.25 24.6875 17.8125 24.25 17.8125 23.75C17.8125 23.25 18.25 22.8125 18.75 22.8125C19.25 22.8125 19.6875 23.25 19.6875 23.75Z" fill="#C6D5DD"/>
</svg>
